<?xml version="1.0" encoding="utf-8"?>
<!-- Generator: Adobe Illustrator 27.6.1, SVG Export Plug-In . SVG Version: 6.00 Build 0)  -->
<svg version="1.1" id="Camada_1" xmlns="http://www.w3.org/2000/svg" xmlns:xlink="http://www.w3.org/1999/xlink" x="0px" y="0px"
	 viewBox="0 0 500 500" style="enable-background:new 0 0 500 500;" xml:space="preserve">
<g id="_x33_ctr8z.tif">
	<g>
		<path d="M51.25,262.67c0-8.23,0-16.46,0-24.69c0.5,1.41,0.26,2.88,0.35,4.32c0.05,0.75,0.01,1.5,0.03,2.24
			c0.02,0.74,0.07,1.49,0.11,2.23c1.22-52.03,19.78-96.92,56.03-134.26c36.24-37.33,80.83-56.91,132.95-60.38
			c-1.08-0.23-1.96,0-2.72-0.44c8.33,0,16.67,0,25,0c-1.35,0.58-2.83,0.12-4.22,0.45c52.2,2.97,97.12,22.41,133.57,59.88
			c36.4,37.42,55.17,82.53,56.59,134.75c0.06-1.37,0.01-2.74,0.08-4.1c0.08-1.48-0.25-2.99,0.24-4.45c0,6.82,0,13.63,0,20.45
			c-0.48-0.94-0.28-1.96-0.31-2.94c-0.03-0.95-0.01-1.9-0.01-2.85c-1.49,53.42-20.42,99.51-58.42,137.29
			c-37.97,37.75-84.14,57.34-137.7,58.06c-54.47,0.73-101.65-18.36-140.73-56.1c-39.11-37.76-58.92-84.29-60.43-138.57
			c-0.05,1.72-0.02,3.45-0.05,5.18C51.55,260.05,51.79,261.4,51.25,262.67z M266.15,132.25c0-4.2,0.02-8.39-0.01-12.59
			c-0.02-2.98-1.75-4.75-4.73-4.79c-2.79-0.04-5.58-0.02-8.37-0.02c-3.83,0-7.67-0.03-11.5,0.04c-2.75,0.05-4.39,1.73-4.51,4.46
			c-0.05,1.04-0.03,2.08-0.03,3.12c0.01,7.36,0.03,14.71,0.02,22.07c0,2.22-0.13,2.29-2.31,2.76c-9.68,2.11-18.71,5.73-26.65,11.73
			c-12.37,9.34-20.82,21.17-22.86,36.9c-0.77,5.92-0.75,11.86,0.28,17.75c1.85,10.6,6.7,19.66,14.4,27.2
			c6.37,6.24,13.78,11,21.69,14.99c8.74,4.41,17.86,7.98,26.91,11.69c7.48,3.06,14.84,6.34,21.81,10.49
			c4.66,2.77,8.02,6.61,10.24,11.43c3.51,7.63,0.63,18.23-6.43,23.82c-8.29,6.56-17.9,8.46-28.14,7.17
			c-8.06-1.02-15.74-3.51-23-7.23c-6.87-3.52-13.03-8.02-18.8-13.1c-1.99-1.75-4.65-1.57-6.47,0.37c-0.4,0.42-0.76,0.88-1.11,1.35
			c-2.91,3.9-5.82,7.8-8.73,11.7c-1.76,2.37-3.54,4.73-5.26,7.13c-1.86,2.58-1.81,4.44,0.17,6.91c0.62,0.78,1.3,1.52,2.04,2.19
			c6.05,5.52,12.64,10.32,19.91,14.12c9.43,4.92,19.35,8.47,29.94,10c2.38,0.34,2.38,0.39,2.37,2.81c0,7.81-0.01,15.63-0.01,23.44
			c0,3.69,1.7,5.41,5.43,5.42c6.17,0.02,12.33,0.02,18.5-0.01c3.57-0.01,5.18-1.66,5.19-5.21c0-8.1,0.02-16.21-0.02-24.31
			c-0.01-1.2,0.3-1.76,1.59-1.99c11.08-1.95,21.13-6.25,29.81-13.45c9.44-7.83,16.14-17.52,19.47-29.38
			c2.33-8.31,2.82-16.8,1.64-25.31c-1.23-8.92-4.31-17.17-10.43-24c-4.38-4.89-9.44-9.08-15.03-12.49
			c-7.4-4.52-15.19-8.31-23.25-11.51c-8.51-3.37-17.07-6.64-25.4-10.45c-6.37-2.91-12.32-6.37-17.28-11.44
			c-4.35-4.44-5.65-9.78-4.93-15.7c0.84-6.91,4.85-11.86,10.57-15.4c8.23-5.09,17.37-6.08,26.75-4.93c8.15,1,15.72,3.93,22.87,7.93
			c4.19,2.34,8.06,5.15,11.86,8.07c2.78,2.14,5.91,1.47,7.47-1.55c3.5-6.76,7.26-13.37,10.96-20.02c2.46-4.42,2.15-5.91-1.64-9.24
			c-0.03-0.03-0.06-0.06-0.09-0.08c-4.45-3.65-9.06-7.08-14.22-9.67c-9.11-4.56-18.65-7.79-28.84-8.87
			c-1.79-0.19-1.84-0.26-1.84-2.07C266.15,140.39,266.15,136.32,266.15,132.25z"/>
	</g>
</g>
</svg>
