<?xml version="1.0" encoding="utf-8"?>
<!-- Generator: Adobe Illustrator 27.6.1, SVG Export Plug-In . SVG Version: 6.00 Build 0)  -->
<svg version="1.1" id="Camada_1" xmlns="http://www.w3.org/2000/svg" xmlns:xlink="http://www.w3.org/1999/xlink" x="0px" y="0px"
	 viewBox="0 0 500 500" style="enable-background:new 0 0 500 500;" xml:space="preserve">
<g>
	<path d="M200.79,353.87c0.04,6.17,4.59,10.77,10.65,10.76c5.66-0.01,10.8-5.25,10.7-10.9c-0.1-5.76-5-10.6-10.74-10.61
		C205.35,343.11,200.75,347.77,200.79,353.87z"/>
	<path d="M243.34,246.37c-0.12-1.72-0.83-2.56-2.62-2.42c-5.31,0.42-10.64-0.06-15.93,0.12c-9.9,0.34-19.79-0.5-29.68,0.2
		c-2.57,0.18-2.84,0.46-1.91,2.96c2.9,7.73,5.79,15.46,8.75,23.17c2.36,6.15,2.41,6.14,9.11,6.15c9.07,0.01,18.15,0,27.22,0
		c0-0.11,0-0.22,0-0.33c1.56,0,3.12-0.09,4.67,0.02c1.87,0.13,2.61-0.4,2.43-2.47C244.62,264.64,243.98,255.5,243.34,246.37z"/>
	<path d="M239.74,231.03c2.01,0.01,2.43-0.62,2.26-2.58c-0.93-10.26-1.78-20.52-2.45-30.8c-0.16-2.39-1-3.03-3.25-3.01
		c-9.98,0.09-19.97,0.04-29.95,0.04c-10.15,0-20.3,0.04-30.44-0.03c-1.99-0.01-2.4,0.44-1.65,2.38
		c4.02,10.46,7.93,20.95,11.84,31.46c0.6,1.62,1.37,2.52,3.33,2.52C206.18,230.93,222.96,230.95,239.74,231.03z"/>
	<path d="M349.66,364.62c5.78-0.03,10.54-4.82,10.59-10.67c0.05-5.88-4.86-10.86-10.68-10.83c-6.12,0.03-10.76,4.67-10.63,10.77
		C339.05,359.37,343.39,364.97,349.66,364.62z"/>
	<path d="M302.58,243.94c-4.49,0.16-9.02,0.63-13.47,0.26c-8.83-0.74-17.65,0.93-26.45-0.24c-0.65,0-1.31,0-1.96,0
		c-4.51,0.01-4.62,0.02-4.32,4.51c0.55,8.23,1.36,16.45,1.82,24.69c0.14,2.51,1.06,3.03,3.41,3.13c7.36,0.31,14.71-0.12,22.05,0.03
		c5.4,0.11,10.78-0.26,16.17-0.09c1.71,0.06,2.47-0.54,2.61-2.35c0.71-9.2,1.52-18.39,2.33-27.59
		C304.9,244.62,304.33,243.87,302.58,243.94z"/>
	<path d="M364.02,244c-5.64,0-11.3,0.46-16.93,0.18c-9.08-0.45-18.16,0.51-27.22-0.16c-1.75-0.13-2.31,0.68-2.43,2.24
		c-0.69,9.3-1.4,18.6-2.12,27.9c-0.1,1.3,0.36,2.03,1.76,2.05c6.06,0.08,12.14,0.57,18.16,0.17c5.83-0.38,11.61,0.64,17.43-0.04
		c2.1-0.14,4.69,1.05,5.68-2.2c2.71-8.93,5.51-17.82,8.21-26.75C367.4,244.58,366.98,244,364.02,244z"/>
	<path d="M250,25.53C126.03,25.53,25.53,126.03,25.53,250S126.03,474.47,250,474.47S474.47,373.97,474.47,250
		S373.97,25.53,250,25.53z M397.28,231.71c-4.41,14.39-8.75,28.8-13.14,43.2c-1.86,6.1-3.66,12.23-5.73,18.26
		c-1.63,4.74-5.19,7.54-10.16,8.15c-4.38,0.54-8.8,0.62-13.23,0.22c-3.25-0.29-6.54-0.21-9.81,0.06c-2.2,0.18-4.43,0.27-6.62,0.12
		c-5.07-0.34-10.15,0.09-15.2-0.08c-9.49-0.33-18.97-0.03-28.45-0.06c-9.88-0.03-19.78-0.4-29.68,0.12
		c-3.83,0.2-7.7-0.42-11.52-0.22c-10.63,0.55-21.26-0.38-31.89,0.25c-2.11,0.13-4.24-0.18-6.37-0.3c-1.25-0.07-1.59,0.33-1.11,1.59
		c1.65,4.27,3.27,8.56,4.78,12.89c0.67,1.91,2.05,2.01,3.7,2.01c19.82-0.02,39.63-0.01,59.45-0.01c1.47,0,2.95,0,4.42,0
		c0,0.01,0,0.02,0,0.04c20.31,0,40.62,0.07,60.92-0.02c15.98-0.08,27.59,7,34.24,21.38c4.38,9.45,4.48,19.45,0.05,29.05
		c-6.64,14.37-18.13,21.94-33.9,21.33c-13.89-0.53-24.29-7.54-30.42-20.3c-3.6-7.5-4.39-15.33-2.62-23.45
		c0.58-2.69,0.4-2.83-2.54-2.83c-21.37-0.01-42.75-0.01-64.12,0c-2.87,0-2.9,0.11-2.37,2.94c3.11,16.62-3.44,31.15-17.13,39.09
		c-18.14,10.51-41.38,2.64-49.75-16.51c-7.25-16.59-1.56-35.74,13.87-45.35c1.53-0.95,1.88-1.85,1.21-3.59
		c-4.46-11.61-8.79-23.27-13.2-34.9c-6.36-16.75-12.79-33.48-19.15-50.24c-2.93-7.72-5.7-15.5-8.62-23.23
		c-4.86-12.84-9.81-25.65-14.68-38.49c-2.29-6.04-4.59-12.09-6.67-18.21c-0.82-2.42-2.09-3.3-4.64-3.26
		c-8.92,0.13-17.85,0.05-26.78,0.06c-7.1,0-12.44-5.45-12.41-12.69c0.03-7.08,5.39-12.44,12.42-12.44c12.2,0,24.4-0.03,36.6-0.03
		c7.86,0,11.79,3.02,14.44,10.35c3.78,10.46,7.88,20.82,11.76,31.25c0.66,1.78,1.94,1.71,3.35,1.71c12.77,0,25.55,0,38.32,0
		c32.02,0,64.04,0,96.05,0c32.51,0,65.02,0,97.53,0c6.78,0,11.41,3.45,13.14,9.64c0.65,2.31,0.44,4.57-0.24,6.78
		C406.7,201.22,401.95,216.46,397.28,231.71z"/>
	<path d="M379.37,194.72c-9.08-0.01-18.16,0-27.25,0c0,0,0-0.01,0-0.01c-8.84,0-17.67-0.02-26.51,0.01
		c-4.09,0.01-4.07,0.06-4.4,4.26c-0.78,9.78-1.56,19.55-2.4,29.32c-0.16,1.85,0.28,2.72,2.32,2.71c16.12-0.06,32.24-0.07,48.36-0.05
		c1.59,0,2.38-0.68,2.79-2.15c0.89-3.14,1.85-6.27,2.8-9.39c2.2-7.19,4.37-14.4,6.63-21.57
		C382.66,194.85,382.64,194.72,379.37,194.72z"/>
	<path d="M306.1,194.67c-8.51,0.09-17.03,0.04-25.54,0.04c0-0.01,0-0.02,0-0.03c-8.43,0-16.86,0.05-25.29-0.04
		c-2.2-0.02-3.2,0.61-2.91,2.95c0.3,2.43,0.39,4.89,0.59,7.33c0.62,7.82,1.3,15.64,1.81,23.47c0.13,2.05,0.99,2.62,2.89,2.61
		c15.22-0.04,30.45-0.04,45.67,0.01c1.71,0,2.62-0.52,2.63-2.34c0.01-1.06,0.23-2.11,0.31-3.17c0.72-9.37,1.35-18.76,2.21-28.12
		C308.66,195.27,308.22,194.64,306.1,194.67z"/>
</g>
</svg>
